32
177430.34375 203647.71875 99419.46875
177800.796875 204931.453125 97067.1171875
178710.109375 206075.765625 94301.8984375
179945.0 207105.640625 91775.2578125
179409.21875 204749.03125 100691.3828125
180018.328125 206132.046875 98337.046875
181276.359375 207298.65625 95639.5703125
182305.859375 208139.4375 93055.453125
181948.4375 205838.703125 102118.3828125
182688.25 207248.234375 99707.578125
183709.0 208308.375 97165.5390625
184652.796875 209039.546875 94496.5625
184336.59375 206710.234375 103255.1484375
185277.171875 208074.125 100969.828125
186230.765625 209102.234375 98468.46875
187198.734375 209882.5625 95780.609375
173672.34375 178044.96875 91052.0625
173076.015625 179667.078125 93471.0390625
172409.609375 181767.8125 95806.8515625
171887.953125 183786.171875 97628.46875
176305.4375 177759.734375 92196.0703125
175821.28125 179417.53125 94571.9375
175016.421875 181291.6875 96727.703125
174762.875 183259.796875 98810.2421875
179179.75 177261.515625 93198.140625
178449.5 178853.140625 95597.4375
177756.125 180590.8125 97949.6484375
177317.125 182403.765625 100301.1796875
181854.65625 176892.5625 94323.859375
181045.90625 178291.546875 96706.890625
180402.5 179900.515625 99256.453125
179770.28125 181705.671875 101705.8828125
